{"asset":{"generator":"glTF-Transform v4.4.2","version":"2.0"},"accessors":[{"type":"SCALAR","componentType":5125,"count":360927,"normalized":false,"byteOffset":0,"bufferView":0},{"type":"VEC3","componentType":5120,"count":73876,"normalized":true,"byteOffset":0,"bufferView":1},{"type":"VEC3","componentType":5122,"count":73876,"max":[32767,28459,6152],"min":[-32767,-28459,-6152],"normalized":true,"byteOffset":0,"bufferView":2}],"bufferViews":[{"buffer":1,"byteOffset":0,"byteLength":1443708,"target":34963,"extensions":{"EXT_meshopt_compression":{"buffer":0,"byteOffset":0,"byteLength":139628,"mode":"TRIANGLES","byteStride":4,"count":360927}}},{"buffer":1,"byteOffset":1443708,"byteLength":295504,"target":34962,"byteStride":4,"extensions":{"EXT_meshopt_compression":{"buffer":0,"byteOffset":139628,"byteLength":135574,"mode":"ATTRIBUTES","filter":"OCTAHEDRAL","byteStride":4,"count":73876}}},{"buffer":1,"byteOffset":1739212,"byteLength":591008,"target":34962,"byteStride":8,"extensions":{"EXT_meshopt_compression":{"buffer":0,"byteOffset":275204,"byteLength":310150,"mode":"ATTRIBUTES","byteStride":8,"count":73876}}}],"buffers":[{"byteLength":585356,"uri":"data:application/octet-stream;base64,"},{"byteLength":2330220,"extensions":{"EXT_meshopt_compression":{"fallback":true}}}],"materials":[{"doubleSided":true,"pbrMetallicRoughness":{}}],"meshes":[{"primitives":[{"attributes":{"NORMAL":1,"POSITION":2},"mode":4,"material":0,"indices":0}]}],"nodes":[{"translation":[0,0.00008919835090637207,0.00004034489393234253],"mesh":0}],"scenes":[{"nodes":[0]}],"scene":0,"extensionsUsed":["EXT_meshopt_compression"],"extensionsRequired":["EXT_meshopt_compression"]}